<svg version="1.1"
    baseProfile="full"
    width="800" height="800"
    xmlns="http://www.w3.org/2000/svg">


    <!-- Base-->
<rect x="0" y="0" width="800" height="800" fill="white" />
<rect x="0" y="530" width="270" height="270" fill="blue" stroke="black"/>
<rect x="0" y="0" width="270" height="270" fill="red" stroke="black"/>
<rect x="530" y="0" width="270" height="270" fill="green" stroke="black"/>
<rect x="530" y="530" width="270" height="270" fill="yellow" stroke="black"/>



<!-- Parte princiapal-->

<rect x="370" y="40" width="65" height="40" fill="red" stroke="black"/>
<rect x="370" y="80" width="65" height="40" fill="red" stroke="black"/>
<rect x="370" y="120" width="65" height="40" fill="red" stroke="black"/>
<rect x="370" y="160" width="65" height="40" fill="red" stroke="black"/>
<rect x="370" y="200" width="65" height="40" fill="red" stroke="black"/>
<rect x="370" y="240" width="65" height="40" fill="red" stroke="black"/>
<rect x="370" y="280" width="65" height="50" fill="red" stroke="black"/>


<!--Verde-->
<rect x="760" y="360" width="40" height="65" fill="white" stroke="black"/>
<rect x="720" y="360" width="40" height="65" fill="green" stroke="black"/>
<rect x="680" y="360" width="40" height="65" fill="green" stroke="black"/>
<rect x="640" y="360" width="40" height="65" fill="green" stroke="black"/>
<rect x="600" y="360" width="40" height="65" fill="green" stroke="black"/>
<rect x="560" y="360" width="40" height="65" fill="green" stroke="black"/>
<rect x="520" y="360" width="40" height="65" fill="green" stroke="black"/>
<rect x="480" y="360" width="40" height="65" fill="green" stroke="black"/>

<!--Amarillo-->
<rect x="370" y="760" width="65" height="40" fill="white" stroke="black"/>
<rect x="370" y="720" width="65" height="40" fill="yellow" stroke="black"/>
<rect x="370" y="680" width="65" height="40" fill="yellow" stroke="black"/>
<rect x="370" y="640" width="65" height="40" fill="yellow" stroke="black"/>
<rect x="370" y="600" width="65" height="40" fill="yellow" stroke="black"/>
<rect x="370" y="560" width="65" height="40" fill="yellow" stroke="black"/>
<rect x="370" y="520" width="65" height="40" fill="yellow" stroke="black"/>
<rect x="370" y="480" width="65" height="50" fill="yellow" stroke="black"/>

<!--Azul-->
<rect x="0" y="360" width="40" height="65" fill="white" stroke="black"/>
<rect x="40" y="360" width="40" height="65" fill="blue" stroke="black"/>
<rect x="80" y="360" width="40" height="65" fill="blue" stroke="black"/>
<rect x="120" y="360" width="40" height="65" fill="blue" stroke="black"/>
<rect x="160" y="360" width="40" height="65" fill="blue" stroke="black"/>
<rect x="200" y="360" width="40" height="65" fill="blue" stroke="black"/>
<rect x="240" y="360" width="40" height="65" fill="blue" stroke="black"/>
<rect x="280" y="360" width="40" height="65" fill="blue" stroke="black"/>


<!--final-->

<!--Casillas Parchis-->
<rect x="370" y="0" width="65" height="40" fill="white" stroke="black"/>
<circle stroke="#023047" stroke-width="2" cx="405" cy="22" r="18" fill="grey"/>
<text x="400" y="30" font-size="30" text-anchor="middle" fill="219EBC" font-family="Arial"> 34 </text>

<rect x="270" y="0" width="99" height="40" fill="white" stroke="black"/>
<text x="320" y="30" font-size="30" text-anchor="middle" fill="219EBC" font-family="Arial"> 35 </text>

<rect x="270" y="40" width="99" height="40" fill="white" stroke="black"/>
<text x="320" y="70" font-size="30" text-anchor="middle" fill="219EBC" font-family="Arial"> 36 </text>

<rect x="270" y="80" width="99" height="40" fill="white" stroke="black"/>

<rect x="270" y="120" width="99" height="40" fill="red" stroke="black"/>

<rect x="270" y="160" width="99" height="40" fill="white" stroke="black"/>

<rect x="270" y="200" width="99" height="40" fill="white" stroke="black"/>

<rect x="270" y="240" width="99" height="40" fill="white" stroke="black"/>

<rect x="270" y="280" width="99" height="40" fill="white" stroke="black"/>

<!-- Azul-->

<rect x="0" y="270" width="40" height="90" fill="white" stroke="black"/>

<rect x="40" y="270" width="40" height="90" fill="white" stroke="black"/>

<rect x="80" y="270" width="40" height="90" fill="white" stroke="black"/>

<rect x="120" y="270" width="40" height="90" fill="white" stroke="black"/>

<rect x="160" y="270" width="40" height="90" fill="white" stroke="black"/>

<rect x="200" y="270" width="40" height="90" fill="white" stroke="black"/>

<rect x="240" y="270" width="40" height="90" fill="white" stroke="black"/>

<rect x="0" y="425" width="40" height="105" fill="white" stroke="black"/>
<rect x="40" y="425" width="40" height="105" fill="white" stroke="black"/>
<rect x="80" y="425" width="40" height="105" fill="white" stroke="black"/>
<rect x="120" y="425" width="40" height="105" fill="white" stroke="black"/>
<rect x="160" y="425" width="40" height="105" fill="blue" stroke="black"/>
<rect x="200" y="425" width="40" height="105" fill="white" stroke="black"/>
<rect x="240" y="425" width="40" height="105" fill="white" stroke="black"/>


<!-- verde-->
<rect x="436" y="0" width="94" height="40" fill="white" stroke="black"/>

<rect x="436" y="40" width="94" height="40" fill="white" stroke="black"/>

<rect x="436" y="80" width="94" height="40" fill="white" stroke="black"/>

<rect x="436" y="120" width="94" height="40" fill="white" stroke="black"/>

<rect x="436" y="160" width="94" height="40" fill="white" stroke="black"/>

<rect x="436" y="200" width="94" height="40" fill="white" stroke="black"/>

<rect x="436" y="240" width="94" height="40" fill="white" stroke="black"/>

<rect x="436" y="280" width="94" height="40" fill="white" stroke="black"/>


<!--Amarillo-->

<rect x="271" y="760" width="99" height="40" fill="white" stroke="black"/>
<rect x="271" y="720" width="99" height="40" fill="white" stroke="black"/>
<rect x="271" y="680" width="99" height="40" fill="white" stroke="black"/>
<rect x="271" y="640" width="99" height="40" fill="white" stroke="black"/>
<rect x="271" y="600" width="99" height="40" fill="white" stroke="black"/>
<rect x="271" y="560" width="99" height="40" fill="white" stroke="black"/>
<rect x="271" y="520" width="99" height="40" fill="white" stroke="black"/>
<rect x="271" y="480" width="99" height="40" fill="white" stroke="black"/>



<rect x="435" y="760" width="95" height="40" fill="white" stroke="black"/>
<rect x="435" y="720" width="95" height="40" fill="white" stroke="black"/>
<rect x="435" y="680" width="95" height="40" fill="white" stroke="black"/>
<rect x="435" y="640" width="95" height="40" fill="white" stroke="black"/>
<rect x="435" y="600" width="95" height="40" fill="yellow" stroke="black"/>
<rect x="435" y="560" width="95" height="40" fill="white" stroke="black"/>
<rect x="435" y="520" width="95" height="40" fill="white" stroke="black"/>
<rect x="435" y="480" width="95" height="40" fill="white" stroke="black"/>



<!--Verde-->

<rect x="800" y="270" width="40" height="90" fill="white" stroke="black"/>

<rect x="760" y="270" width="40" height="90" fill="white" stroke="black"/>

<rect x="720" y="270" width="40" height="90" fill="white" stroke="black"/>

<rect x="660" y="270" width="40" height="90" fill="white" stroke="black"/>

<rect x="620" y="270" width="40" height="90" fill="white" stroke="black"/>

<rect x="560" y="270" width="60" height="90" fill="white" stroke="black"/>


<rect x="760" y="425" width="40" height="105" fill="white" stroke="black"/>
<rect x="720" y="425" width="40" height="105" fill="white" stroke="black"/>
<rect x="660" y="425" width="40" height="105" fill="white" stroke="black"/>
<rect x="620" y="425" width="40" height="105" fill="green" stroke="black"/>
<rect x="580" y="425" width="40" height="105" fill="white" stroke="black"/>
<rect x="540" y="425" width="40" height="105" fill="white" stroke="black"/>
<rect x="500" y="425" width="40" height="105" fill="white" stroke="black"/>


<!-- final-->
<rect x="270" y="305" width="250" height="215" fill="purple" stroke="black"/>
<circle stroke="#023047" stroke-width="2" cx="20" cy="398" r="18" fill="grey"/>
<circle stroke="#023047" stroke-width="2" cx="400" cy="780" r="18" fill="grey"/>
<circle stroke="#023047" stroke-width="2" cx="785" cy="400" r="18" fill="grey"/>

<circle stroke="black" stroke-width="2" cx="200" cy="200" r="18" fill="#a21c25"/>
<circle stroke="black" stroke-width="2" cx="200" cy="100" r="18" fill="#a21c25"/>
<circle stroke="black" stroke-width="2" cx="100" cy="200" r="18" fill="#a21c25"/>
<circle stroke="black" stroke-width="2" cx="100" cy="100" r="18" fill="#a21c25"/>


<circle stroke="black" stroke-width="2" cx="600" cy="200" r="18" fill="#39673a"/>
<circle stroke="black" stroke-width="2" cx="600" cy="100" r="18" fill="#39673a"/>
<circle stroke="black" stroke-width="2" cx="700" cy="200" r="18" fill="#39673a"/>
<circle stroke="black" stroke-width="2" cx="700" cy="100" r="18" fill="#39673a"/>

<circle stroke="black" stroke-width="2" cx="200" cy="600" r="18" fill="#4470b6"/>
<circle stroke="black" stroke-width="2" cx="200" cy="700" r="18" fill="#4470b6"/>
<circle stroke="black" stroke-width="2" cx="100" cy="600" r="18" fill="#4470b6"/>
<circle stroke="black" stroke-width="2" cx="100" cy="700" r="18" fill="#4470b6"/>


<circle stroke="black" stroke-width="2" cx="600" cy="600" r="18" fill="#e0b33f"/>
<circle stroke="black" stroke-width="2" cx="600" cy="700" r="18" fill="#e0b33f"/>
<circle stroke="black" stroke-width="2" cx="700" cy="700" r="18" fill="#e0b33f"/>
<circle stroke="black" stroke-width="2" cx="700" cy="600" r="18" fill="#e0b33f"/>

</svg>